# xmcd CD database file
#
# Track frame offsets:
#	150
#	12175
#	31707
#
# Disc length: 734 seconds
#
# Revision: 0
# Processed by: cddbd v1.5PL3 Copyright (c) Steve Scherf et al.
# Submitted via: CDex 1.40Release
#
DISCID=1302dc03
DTITLE=ともさかりえ - 少女ロボット
DYEAR=2000
DGENRE=Pop
TTITLE0=少女ロボット
TTITLE1=いけない子
TTITLE2=日本に生まれて
EXTD=YEAR: 2000 ID3G: 13
EXTT0=
EXTT1=
EXTT2=
PLAYORDER=
